<mxfile host="app.diagrams.net" modified="2023-11-21T18:27:10.025Z" agent="Mozilla/5.0 (Windows NT 10.0; Win64; x64) AppleWebKit/537.36 (KHTML, like Gecko) Chrome/119.0.0.0 Safari/537.36 Edg/119.0.0.0" etag="ER9iH_0UEYKgGx7g81Nm" version="22.1.3" type="github" pages="2">
  <diagram id="C5RBs43oDa-KdzZeNtuy" name="prompt-flow">
    <mxGraphModel dx="2192" dy="766" grid="1" gridSize="10" guides="1" tooltips="1" connect="1" arrows="1" fold="1" page="1" pageScale="1" pageWidth="827" pageHeight="1169" math="0" shadow="0">
      <root>
        <mxCell id="WIyWlLk6GJQsqaUBKTNV-0" />
        <mxCell id="WIyWlLk6GJQsqaUBKTNV-1" parent="WIyWlLk6GJQsqaUBKTNV-0" />
        <mxCell id="hUnJZFfUFRwl76O63PIy-29" value="" style="rounded=1;whiteSpace=wrap;html=1;absoluteArcSize=1;arcSize=14;strokeWidth=2;fillColor=#ffe6cc;strokeColor=#d79b00;" parent="WIyWlLk6GJQsqaUBKTNV-1" vertex="1">
          <mxGeometry x="-702" y="603" width="162" height="146" as="geometry" />
        </mxCell>
        <mxCell id="WIyWlLk6GJQsqaUBKTNV-4" value="" style="rounded=0;html=1;jettySize=auto;orthogonalLoop=1;fontSize=11;endArrow=block;endFill=0;endSize=8;strokeWidth=1;shadow=0;labelBackgroundColor=none;edgeStyle=orthogonalEdgeStyle;entryX=0.5;entryY=0;entryDx=0;entryDy=0;" parent="WIyWlLk6GJQsqaUBKTNV-1" source="WIyWlLk6GJQsqaUBKTNV-6" target="WIyWlLk6GJQsqaUBKTNV-11" edge="1">
          <mxGeometry x="0.122" y="18" relative="1" as="geometry">
            <mxPoint as="offset" />
            <mxPoint x="-620" y="275" as="targetPoint" />
          </mxGeometry>
        </mxCell>
        <mxCell id="WIyWlLk6GJQsqaUBKTNV-6" value="StartStory" style="rhombus;whiteSpace=wrap;html=1;shadow=0;fontFamily=Helvetica;fontSize=12;align=center;strokeWidth=1;spacing=6;spacingTop=-4;fillColor=#7A7A7A;" parent="WIyWlLk6GJQsqaUBKTNV-1" vertex="1">
          <mxGeometry x="-670" y="155" width="100" height="80" as="geometry" />
        </mxCell>
        <mxCell id="WIyWlLk6GJQsqaUBKTNV-11" value="ArticleGenerator.&lt;br&gt;fetch_random_article" style="rounded=1;whiteSpace=wrap;html=1;fontSize=12;glass=0;strokeWidth=1;shadow=0;" parent="WIyWlLk6GJQsqaUBKTNV-1" vertex="1">
          <mxGeometry x="-680" y="295" width="120" height="40" as="geometry" />
        </mxCell>
        <mxCell id="hUnJZFfUFRwl76O63PIy-0" value="startstory" style="text;strokeColor=none;fillColor=none;html=1;fontSize=24;fontStyle=1;verticalAlign=middle;align=center;" parent="WIyWlLk6GJQsqaUBKTNV-1" vertex="1">
          <mxGeometry x="-660" y="100" width="100" height="40" as="geometry" />
        </mxCell>
        <mxCell id="hUnJZFfUFRwl76O63PIy-12" value="chatforme" style="rhombus;whiteSpace=wrap;html=1;shadow=0;fontFamily=Helvetica;fontSize=12;align=center;strokeWidth=1;spacing=6;spacingTop=-4;" parent="WIyWlLk6GJQsqaUBKTNV-1" vertex="1">
          <mxGeometry x="-408" y="145" width="100" height="80" as="geometry" />
        </mxCell>
        <mxCell id="hUnJZFfUFRwl76O63PIy-13" value="Yes" style="rounded=0;html=1;jettySize=auto;orthogonalLoop=1;fontSize=11;endArrow=block;endFill=0;endSize=8;strokeWidth=1;shadow=0;labelBackgroundColor=none;edgeStyle=orthogonalEdgeStyle;exitX=0.5;exitY=1;exitDx=0;exitDy=0;" parent="WIyWlLk6GJQsqaUBKTNV-1" source="hUnJZFfUFRwl76O63PIy-12" edge="1">
          <mxGeometry y="20" relative="1" as="geometry">
            <mxPoint as="offset" />
            <mxPoint x="-498" y="235" as="sourcePoint" />
            <mxPoint x="-358" y="275" as="targetPoint" />
          </mxGeometry>
        </mxCell>
        <mxCell id="hUnJZFfUFRwl76O63PIy-14" value="botthot" style="rhombus;whiteSpace=wrap;html=1;shadow=0;fontFamily=Helvetica;fontSize=12;align=center;strokeWidth=1;spacing=6;spacingTop=-4;" parent="WIyWlLk6GJQsqaUBKTNV-1" vertex="1">
          <mxGeometry x="-159.5" y="145" width="100" height="80" as="geometry" />
        </mxCell>
        <mxCell id="hUnJZFfUFRwl76O63PIy-16" value="GPT.add_message" style="rounded=1;whiteSpace=wrap;html=1;fontSize=12;glass=0;strokeWidth=1;shadow=0;" parent="WIyWlLk6GJQsqaUBKTNV-1" vertex="1">
          <mxGeometry x="-692" y="621" width="138" height="40" as="geometry" />
        </mxCell>
        <mxCell id="hUnJZFfUFRwl76O63PIy-17" value="Contains disallowed terms?" style="rhombus;whiteSpace=wrap;html=1;shadow=0;fontFamily=Helvetica;fontSize=12;align=center;strokeWidth=1;spacing=6;spacingTop=-4;" parent="WIyWlLk6GJQsqaUBKTNV-1" vertex="1">
          <mxGeometry x="-670" y="414" width="100" height="80" as="geometry" />
        </mxCell>
        <mxCell id="hUnJZFfUFRwl76O63PIy-18" value="Yes" style="rounded=0;html=1;jettySize=auto;orthogonalLoop=1;fontSize=11;endArrow=block;endFill=0;endSize=8;strokeWidth=1;shadow=0;labelBackgroundColor=none;edgeStyle=orthogonalEdgeStyle;entryX=1;entryY=0.5;entryDx=0;entryDy=0;exitX=1;exitY=0.5;exitDx=0;exitDy=0;fillColor=#ffe6cc;strokeColor=#D79B00;" parent="WIyWlLk6GJQsqaUBKTNV-1" source="hUnJZFfUFRwl76O63PIy-17" target="WIyWlLk6GJQsqaUBKTNV-11" edge="1">
          <mxGeometry x="0.11" y="-16" relative="1" as="geometry">
            <mxPoint as="offset" />
            <mxPoint x="-610" y="245" as="sourcePoint" />
            <mxPoint x="-610" y="305" as="targetPoint" />
            <Array as="points">
              <mxPoint x="-530" y="454" />
              <mxPoint x="-530" y="315" />
            </Array>
          </mxGeometry>
        </mxCell>
        <mxCell id="hUnJZFfUFRwl76O63PIy-19" value="" style="rounded=0;html=1;jettySize=auto;orthogonalLoop=1;fontSize=11;endArrow=block;endFill=0;endSize=8;strokeWidth=1;shadow=0;labelBackgroundColor=none;edgeStyle=orthogonalEdgeStyle;entryX=0.5;entryY=0;entryDx=0;entryDy=0;exitX=0.5;exitY=1;exitDx=0;exitDy=0;" parent="WIyWlLk6GJQsqaUBKTNV-1" source="WIyWlLk6GJQsqaUBKTNV-11" target="hUnJZFfUFRwl76O63PIy-34" edge="1">
          <mxGeometry y="20" relative="1" as="geometry">
            <mxPoint as="offset" />
            <mxPoint x="-610" y="245" as="sourcePoint" />
            <mxPoint x="-610" y="305" as="targetPoint" />
          </mxGeometry>
        </mxCell>
        <mxCell id="hUnJZFfUFRwl76O63PIy-20" value="No" style="edgeStyle=orthogonalEdgeStyle;rounded=0;html=1;jettySize=auto;orthogonalLoop=1;fontSize=11;endArrow=block;endFill=0;endSize=8;strokeWidth=1;shadow=0;labelBackgroundColor=none;exitX=0.5;exitY=1;exitDx=0;exitDy=0;entryX=0.5;entryY=0;entryDx=0;entryDy=0;" parent="WIyWlLk6GJQsqaUBKTNV-1" source="hUnJZFfUFRwl76O63PIy-17" target="hUnJZFfUFRwl76O63PIy-16" edge="1">
          <mxGeometry x="-0.8483" y="17" relative="1" as="geometry">
            <mxPoint as="offset" />
            <mxPoint x="-560" y="216" as="sourcePoint" />
            <mxPoint x="-620" y="516" as="targetPoint" />
          </mxGeometry>
        </mxCell>
        <mxCell id="hUnJZFfUFRwl76O63PIy-21" value="GPT.generate_response" style="rounded=1;whiteSpace=wrap;html=1;fontSize=12;glass=0;strokeWidth=1;shadow=0;" parent="WIyWlLk6GJQsqaUBKTNV-1" vertex="1">
          <mxGeometry x="-692" y="688" width="137" height="40" as="geometry" />
        </mxCell>
        <mxCell id="hUnJZFfUFRwl76O63PIy-22" value="" style="rounded=0;html=1;jettySize=auto;orthogonalLoop=1;fontSize=11;endArrow=block;endFill=0;endSize=8;strokeWidth=1;shadow=0;labelBackgroundColor=none;edgeStyle=orthogonalEdgeStyle;exitX=0.5;exitY=1;exitDx=0;exitDy=0;entryX=0.5;entryY=0;entryDx=0;entryDy=0;" parent="WIyWlLk6GJQsqaUBKTNV-1" source="hUnJZFfUFRwl76O63PIy-16" target="hUnJZFfUFRwl76O63PIy-21" edge="1">
          <mxGeometry relative="1" as="geometry">
            <mxPoint x="-617" y="208" as="sourcePoint" />
            <mxPoint x="-622" y="668" as="targetPoint" />
          </mxGeometry>
        </mxCell>
        <mxCell id="hUnJZFfUFRwl76O63PIy-24" value="" style="strokeWidth=2;html=1;shape=mxgraph.flowchart.annotation_1;align=left;pointerEvents=1;fillColor=#dae8fc;strokeColor=#6c8ebf;" parent="WIyWlLk6GJQsqaUBKTNV-1" vertex="1">
          <mxGeometry x="-730" y="284" width="50" height="480" as="geometry" />
        </mxCell>
        <mxCell id="hUnJZFfUFRwl76O63PIy-25" value="Summarize Article" style="text;strokeColor=#6c8ebf;fillColor=#dae8fc;html=1;fontSize=24;fontStyle=1;verticalAlign=middle;align=center;rotation=-90;" parent="WIyWlLk6GJQsqaUBKTNV-1" vertex="1">
          <mxGeometry x="-910" y="490" width="240" height="55" as="geometry" />
        </mxCell>
        <mxCell id="hUnJZFfUFRwl76O63PIy-30" value="article_summary" style="shape=parallelogram;html=1;strokeWidth=2;perimeter=parallelogramPerimeter;whiteSpace=wrap;rounded=1;arcSize=12;size=0.23;fillColor=#d5e8d4;strokeColor=#82b366;" parent="WIyWlLk6GJQsqaUBKTNV-1" vertex="1">
          <mxGeometry x="-684" y="814.5" width="124.5" height="47" as="geometry" />
        </mxCell>
        <mxCell id="hUnJZFfUFRwl76O63PIy-32" value="" style="rounded=0;html=1;jettySize=auto;orthogonalLoop=1;fontSize=11;endArrow=block;endFill=0;endSize=8;strokeWidth=1;shadow=0;labelBackgroundColor=none;edgeStyle=orthogonalEdgeStyle;exitX=0.5;exitY=1;exitDx=0;exitDy=0;entryX=0.5;entryY=0;entryDx=0;entryDy=0;" parent="WIyWlLk6GJQsqaUBKTNV-1" source="hUnJZFfUFRwl76O63PIy-29" target="hUnJZFfUFRwl76O63PIy-30" edge="1">
          <mxGeometry relative="1" as="geometry">
            <mxPoint x="-610" y="193" as="sourcePoint" />
            <mxPoint x="-610" y="243" as="targetPoint" />
          </mxGeometry>
        </mxCell>
        <mxCell id="hUnJZFfUFRwl76O63PIy-36" value="" style="edgeStyle=orthogonalEdgeStyle;rounded=0;orthogonalLoop=1;jettySize=auto;html=1;" parent="WIyWlLk6GJQsqaUBKTNV-1" source="hUnJZFfUFRwl76O63PIy-34" target="hUnJZFfUFRwl76O63PIy-17" edge="1">
          <mxGeometry relative="1" as="geometry" />
        </mxCell>
        <mxCell id="hUnJZFfUFRwl76O63PIy-34" value="article" style="shape=parallelogram;html=1;strokeWidth=2;perimeter=parallelogramPerimeter;whiteSpace=wrap;rounded=1;arcSize=12;size=0.23;" parent="WIyWlLk6GJQsqaUBKTNV-1" vertex="1">
          <mxGeometry x="-682.25" y="359" width="124.5" height="30" as="geometry" />
        </mxCell>
        <mxCell id="hUnJZFfUFRwl76O63PIy-37" value="GPT.generate_response &lt;br&gt;generate plot line&amp;nbsp;" style="rounded=1;whiteSpace=wrap;html=1;fontSize=12;glass=0;strokeWidth=1;shadow=0;" parent="WIyWlLk6GJQsqaUBKTNV-1" vertex="1">
          <mxGeometry x="-700" y="528" width="160" height="40" as="geometry" />
        </mxCell>
        <mxCell id="hUnJZFfUFRwl76O63PIy-40" value="&lt;font style=&quot;font-size: 9px;&quot;&gt;ouat_counter&lt;br&gt;is&lt;br&gt;&#39;startstory&#39;&lt;/font&gt;" style="rhombus;whiteSpace=wrap;html=1;shadow=0;fontFamily=Helvetica;fontSize=12;align=center;strokeWidth=1;spacing=6;spacingTop=-4;" parent="WIyWlLk6GJQsqaUBKTNV-1" vertex="1">
          <mxGeometry x="-374.03" y="929" width="100" height="80" as="geometry" />
        </mxCell>
        <mxCell id="hUnJZFfUFRwl76O63PIy-57" value="" style="edgeStyle=orthogonalEdgeStyle;rounded=0;orthogonalLoop=1;jettySize=auto;html=1;" parent="WIyWlLk6GJQsqaUBKTNV-1" source="hUnJZFfUFRwl76O63PIy-41" target="hUnJZFfUFRwl76O63PIy-42" edge="1">
          <mxGeometry relative="1" as="geometry" />
        </mxCell>
        <mxCell id="hUnJZFfUFRwl76O63PIy-41" value="&lt;font style=&quot;font-size: 9px;&quot;&gt;ouat_counter&lt;br&gt;is&lt;br&gt;&#39;progress story&#39;&lt;/font&gt;" style="rhombus;whiteSpace=wrap;html=1;shadow=0;fontFamily=Helvetica;fontSize=12;align=center;strokeWidth=1;spacing=6;spacingTop=-4;" parent="WIyWlLk6GJQsqaUBKTNV-1" vertex="1">
          <mxGeometry x="-374.03" y="797" width="100" height="80" as="geometry" />
        </mxCell>
        <mxCell id="hUnJZFfUFRwl76O63PIy-42" value="&lt;font style=&quot;font-size: 9px;&quot;&gt;ouat_counter&lt;br&gt;is&lt;br&gt;&#39;wrap up story&#39;&lt;/font&gt;" style="rhombus;whiteSpace=wrap;html=1;shadow=0;fontFamily=Helvetica;fontSize=12;align=center;strokeWidth=1;spacing=6;spacingTop=-4;" parent="WIyWlLk6GJQsqaUBKTNV-1" vertex="1">
          <mxGeometry x="-374.03" y="664" width="100" height="80" as="geometry" />
        </mxCell>
        <mxCell id="hUnJZFfUFRwl76O63PIy-43" value="&lt;font style=&quot;font-size: 9px;&quot;&gt;ouat_counter&lt;br&gt;is&lt;br&gt;&#39;end story&#39;&lt;/font&gt;" style="rhombus;whiteSpace=wrap;html=1;shadow=0;fontFamily=Helvetica;fontSize=12;align=center;strokeWidth=1;spacing=6;spacingTop=-4;" parent="WIyWlLk6GJQsqaUBKTNV-1" vertex="1">
          <mxGeometry x="-374.03" y="547" width="100" height="80" as="geometry" />
        </mxCell>
        <mxCell id="hUnJZFfUFRwl76O63PIy-45" value="No" style="edgeStyle=orthogonalEdgeStyle;rounded=0;html=1;jettySize=auto;orthogonalLoop=1;fontSize=11;endArrow=block;endFill=0;endSize=8;strokeWidth=1;shadow=0;labelBackgroundColor=none;entryX=0.5;entryY=1;entryDx=0;entryDy=0;exitX=0.5;exitY=0;exitDx=0;exitDy=0;" parent="WIyWlLk6GJQsqaUBKTNV-1" source="hUnJZFfUFRwl76O63PIy-40" target="hUnJZFfUFRwl76O63PIy-41" edge="1">
          <mxGeometry x="-0.4118" y="20" relative="1" as="geometry">
            <mxPoint x="1" as="offset" />
            <mxPoint x="-214.02999999999997" y="859" as="sourcePoint" />
            <mxPoint x="-323.5" y="806" as="targetPoint" />
            <Array as="points" />
          </mxGeometry>
        </mxCell>
        <mxCell id="hUnJZFfUFRwl76O63PIy-46" value="No" style="edgeStyle=orthogonalEdgeStyle;rounded=0;html=1;jettySize=auto;orthogonalLoop=1;fontSize=11;endArrow=block;endFill=0;endSize=8;strokeWidth=1;shadow=0;labelBackgroundColor=none;exitX=0.5;exitY=0;exitDx=0;exitDy=0;entryX=0.5;entryY=1;entryDx=0;entryDy=0;" parent="WIyWlLk6GJQsqaUBKTNV-1" source="hUnJZFfUFRwl76O63PIy-41" target="hUnJZFfUFRwl76O63PIy-42" edge="1">
          <mxGeometry x="-0.1739" y="23" relative="1" as="geometry">
            <mxPoint as="offset" />
            <mxPoint x="-171" y="816" as="sourcePoint" />
            <mxPoint x="-241" y="766" as="targetPoint" />
            <Array as="points">
              <mxPoint x="-324" y="757" />
            </Array>
          </mxGeometry>
        </mxCell>
        <mxCell id="hUnJZFfUFRwl76O63PIy-47" value="No" style="edgeStyle=orthogonalEdgeStyle;rounded=0;html=1;jettySize=auto;orthogonalLoop=1;fontSize=11;endArrow=block;endFill=0;endSize=8;strokeWidth=1;shadow=0;labelBackgroundColor=none;entryX=0.5;entryY=1;entryDx=0;entryDy=0;exitX=0.5;exitY=0;exitDx=0;exitDy=0;" parent="WIyWlLk6GJQsqaUBKTNV-1" source="hUnJZFfUFRwl76O63PIy-42" target="hUnJZFfUFRwl76O63PIy-43" edge="1">
          <mxGeometry y="21" relative="1" as="geometry">
            <mxPoint x="-1" as="offset" />
            <mxPoint x="-199" y="804" as="sourcePoint" />
            <mxPoint x="-153" y="804" as="targetPoint" />
            <Array as="points">
              <mxPoint x="-324" y="664" />
            </Array>
          </mxGeometry>
        </mxCell>
        <mxCell id="hUnJZFfUFRwl76O63PIy-52" value="" style="strokeWidth=2;html=1;shape=mxgraph.flowchart.annotation_1;align=left;pointerEvents=1;fillColor=#e1d5e7;strokeColor=#9673a6;" parent="WIyWlLk6GJQsqaUBKTNV-1" vertex="1">
          <mxGeometry x="-391" y="540" width="50" height="480" as="geometry" />
        </mxCell>
        <mxCell id="hUnJZFfUFRwl76O63PIy-53" value="&lt;font style=&quot;font-size: 18px;&quot;&gt;Generate Story&lt;br&gt;Response&lt;/font&gt;" style="text;strokeColor=#9673a6;fillColor=#e1d5e7;html=1;fontSize=24;fontStyle=1;verticalAlign=middle;align=center;rotation=-90;" parent="WIyWlLk6GJQsqaUBKTNV-1" vertex="1">
          <mxGeometry x="-593.46" y="824.4" width="253.75" height="69.94" as="geometry" />
        </mxCell>
        <mxCell id="hUnJZFfUFRwl76O63PIy-54" value="" style="rounded=1;whiteSpace=wrap;html=1;absoluteArcSize=1;arcSize=14;strokeWidth=2;fillColor=#ffe6cc;strokeColor=#d79b00;" parent="WIyWlLk6GJQsqaUBKTNV-1" vertex="1">
          <mxGeometry x="-202" y="728" width="180" height="200" as="geometry" />
        </mxCell>
        <mxCell id="hUnJZFfUFRwl76O63PIy-55" value="generate_response_text" style="rounded=1;whiteSpace=wrap;html=1;fontSize=12;glass=0;strokeWidth=1;shadow=0;" parent="WIyWlLk6GJQsqaUBKTNV-1" vertex="1">
          <mxGeometry x="-185" y="762" width="145" height="40" as="geometry" />
        </mxCell>
        <mxCell id="hUnJZFfUFRwl76O63PIy-56" value="add_message_to_thread" style="rounded=1;whiteSpace=wrap;html=1;fontSize=12;glass=0;strokeWidth=1;shadow=0;" parent="WIyWlLk6GJQsqaUBKTNV-1" vertex="1">
          <mxGeometry x="-185" y="849" width="145" height="40" as="geometry" />
        </mxCell>
        <mxCell id="hUnJZFfUFRwl76O63PIy-58" value="yes" style="edgeStyle=orthogonalEdgeStyle;rounded=0;html=1;jettySize=auto;orthogonalLoop=1;fontSize=11;endArrow=block;endFill=0;endSize=8;strokeWidth=1;shadow=0;labelBackgroundColor=none;exitX=1;exitY=0.5;exitDx=0;exitDy=0;entryX=0;entryY=0.5;entryDx=0;entryDy=0;" parent="WIyWlLk6GJQsqaUBKTNV-1" source="hUnJZFfUFRwl76O63PIy-40" target="hUnJZFfUFRwl76O63PIy-54" edge="1">
          <mxGeometry x="-0.5805" y="17" relative="1" as="geometry">
            <mxPoint as="offset" />
            <mxPoint x="-314" y="807" as="sourcePoint" />
            <mxPoint x="-210" y="795.9999999999998" as="targetPoint" />
            <Array as="points">
              <mxPoint x="-239" y="969" />
              <mxPoint x="-239" y="828" />
            </Array>
          </mxGeometry>
        </mxCell>
        <mxCell id="hUnJZFfUFRwl76O63PIy-59" value="yes" style="edgeStyle=orthogonalEdgeStyle;rounded=0;html=1;jettySize=auto;orthogonalLoop=1;fontSize=11;endArrow=block;endFill=0;endSize=8;strokeWidth=1;shadow=0;labelBackgroundColor=none;exitX=1;exitY=0.5;exitDx=0;exitDy=0;entryX=0;entryY=0.5;entryDx=0;entryDy=0;" parent="WIyWlLk6GJQsqaUBKTNV-1" source="hUnJZFfUFRwl76O63PIy-41" target="hUnJZFfUFRwl76O63PIy-54" edge="1">
          <mxGeometry x="-0.5625" y="17" relative="1" as="geometry">
            <mxPoint as="offset" />
            <mxPoint x="-264" y="979" as="sourcePoint" />
            <mxPoint x="-210" y="795.9999999999998" as="targetPoint" />
            <Array as="points">
              <mxPoint x="-239" y="836" />
              <mxPoint x="-239" y="828" />
            </Array>
          </mxGeometry>
        </mxCell>
        <mxCell id="hUnJZFfUFRwl76O63PIy-60" value="yes" style="edgeStyle=orthogonalEdgeStyle;rounded=0;html=1;jettySize=auto;orthogonalLoop=1;fontSize=11;endArrow=block;endFill=0;endSize=8;strokeWidth=1;shadow=0;labelBackgroundColor=none;exitX=1;exitY=0.5;exitDx=0;exitDy=0;entryX=0;entryY=0.5;entryDx=0;entryDy=0;" parent="WIyWlLk6GJQsqaUBKTNV-1" source="hUnJZFfUFRwl76O63PIy-42" target="hUnJZFfUFRwl76O63PIy-54" edge="1">
          <mxGeometry x="-0.7737" y="15" relative="1" as="geometry">
            <mxPoint as="offset" />
            <mxPoint x="-264" y="847" as="sourcePoint" />
            <mxPoint x="-210" y="795.9999999999998" as="targetPoint" />
            <Array as="points">
              <mxPoint x="-239" y="704" />
              <mxPoint x="-239" y="828" />
            </Array>
          </mxGeometry>
        </mxCell>
        <mxCell id="hUnJZFfUFRwl76O63PIy-61" value="yes" style="edgeStyle=orthogonalEdgeStyle;rounded=0;html=1;jettySize=auto;orthogonalLoop=1;fontSize=11;endArrow=block;endFill=0;endSize=8;strokeWidth=1;shadow=0;labelBackgroundColor=none;exitX=1;exitY=0.5;exitDx=0;exitDy=0;entryX=0;entryY=0.5;entryDx=0;entryDy=0;" parent="WIyWlLk6GJQsqaUBKTNV-1" edge="1">
          <mxGeometry x="-0.8571" y="17" relative="1" as="geometry">
            <mxPoint as="offset" />
            <mxPoint x="-274.02999999999975" y="587" as="sourcePoint" />
            <mxPoint x="-202" y="827.9999999999998" as="targetPoint" />
            <Array as="points">
              <mxPoint x="-239" y="587" />
              <mxPoint x="-239" y="828" />
            </Array>
          </mxGeometry>
        </mxCell>
        <mxCell id="hUnJZFfUFRwl76O63PIy-62" value="chatforme" style="text;strokeColor=none;fillColor=none;html=1;fontSize=24;fontStyle=1;verticalAlign=middle;align=center;" parent="WIyWlLk6GJQsqaUBKTNV-1" vertex="1">
          <mxGeometry x="-159.5" y="90" width="100" height="40" as="geometry" />
        </mxCell>
        <mxCell id="hUnJZFfUFRwl76O63PIy-63" value="botthot" style="text;strokeColor=none;fillColor=none;html=1;fontSize=24;fontStyle=1;verticalAlign=middle;align=center;" parent="WIyWlLk6GJQsqaUBKTNV-1" vertex="1">
          <mxGeometry x="-418" y="90" width="100" height="40" as="geometry" />
        </mxCell>
        <mxCell id="hUnJZFfUFRwl76O63PIy-64" value="" style="rounded=1;whiteSpace=wrap;html=1;absoluteArcSize=1;arcSize=14;strokeWidth=2;fillColor=#ffe6cc;strokeColor=#d79b00;" parent="WIyWlLk6GJQsqaUBKTNV-1" vertex="1">
          <mxGeometry x="-448" y="285" width="180" height="146" as="geometry" />
        </mxCell>
        <mxCell id="hUnJZFfUFRwl76O63PIy-65" value="add_message_to_thread" style="rounded=1;whiteSpace=wrap;html=1;fontSize=12;glass=0;strokeWidth=1;shadow=0;" parent="WIyWlLk6GJQsqaUBKTNV-1" vertex="1">
          <mxGeometry x="-431" y="303" width="145" height="40" as="geometry" />
        </mxCell>
        <mxCell id="hUnJZFfUFRwl76O63PIy-66" value="generate_response_text" style="rounded=1;whiteSpace=wrap;html=1;fontSize=12;glass=0;strokeWidth=1;shadow=0;" parent="WIyWlLk6GJQsqaUBKTNV-1" vertex="1">
          <mxGeometry x="-431" y="370" width="145" height="40" as="geometry" />
        </mxCell>
        <mxCell id="hUnJZFfUFRwl76O63PIy-67" value="" style="rounded=1;whiteSpace=wrap;html=1;absoluteArcSize=1;arcSize=14;strokeWidth=2;fillColor=#ffe6cc;strokeColor=#d79b00;" parent="WIyWlLk6GJQsqaUBKTNV-1" vertex="1">
          <mxGeometry x="-199" y="285" width="180" height="146" as="geometry" />
        </mxCell>
        <mxCell id="hUnJZFfUFRwl76O63PIy-68" value="add_message_to_thread" style="rounded=1;whiteSpace=wrap;html=1;fontSize=12;glass=0;strokeWidth=1;shadow=0;" parent="WIyWlLk6GJQsqaUBKTNV-1" vertex="1">
          <mxGeometry x="-182" y="303" width="145" height="40" as="geometry" />
        </mxCell>
        <mxCell id="hUnJZFfUFRwl76O63PIy-69" value="generate_response_text" style="rounded=1;whiteSpace=wrap;html=1;fontSize=12;glass=0;strokeWidth=1;shadow=0;" parent="WIyWlLk6GJQsqaUBKTNV-1" vertex="1">
          <mxGeometry x="-182" y="370" width="145" height="40" as="geometry" />
        </mxCell>
        <mxCell id="hUnJZFfUFRwl76O63PIy-70" value="chatforme output &lt;br&gt;text" style="shape=parallelogram;html=1;strokeWidth=2;perimeter=parallelogramPerimeter;whiteSpace=wrap;rounded=1;arcSize=12;size=0.23;fillColor=#d5e8d4;strokeColor=#82b366;" parent="WIyWlLk6GJQsqaUBKTNV-1" vertex="1">
          <mxGeometry x="-420.75" y="459" width="124.5" height="46" as="geometry" />
        </mxCell>
        <mxCell id="hUnJZFfUFRwl76O63PIy-71" value="botthot output&lt;br&gt;text" style="shape=parallelogram;html=1;strokeWidth=2;perimeter=parallelogramPerimeter;whiteSpace=wrap;rounded=1;arcSize=12;size=0.23;fillColor=#d5e8d4;strokeColor=#82b366;" parent="WIyWlLk6GJQsqaUBKTNV-1" vertex="1">
          <mxGeometry x="-171.75" y="459" width="124.5" height="46" as="geometry" />
        </mxCell>
        <mxCell id="hUnJZFfUFRwl76O63PIy-74" value="" style="rounded=0;html=1;jettySize=auto;orthogonalLoop=1;fontSize=11;endArrow=block;endFill=0;endSize=8;strokeWidth=1;shadow=0;labelBackgroundColor=none;edgeStyle=orthogonalEdgeStyle;entryX=0.5;entryY=0;entryDx=0;entryDy=0;exitX=0.5;exitY=1;exitDx=0;exitDy=0;" parent="WIyWlLk6GJQsqaUBKTNV-1" source="hUnJZFfUFRwl76O63PIy-64" target="hUnJZFfUFRwl76O63PIy-70" edge="1">
          <mxGeometry x="0.122" y="18" relative="1" as="geometry">
            <mxPoint as="offset" />
            <mxPoint x="-618" y="235" as="sourcePoint" />
            <mxPoint x="-618" y="295" as="targetPoint" />
          </mxGeometry>
        </mxCell>
        <mxCell id="hUnJZFfUFRwl76O63PIy-75" value="" style="rounded=0;html=1;jettySize=auto;orthogonalLoop=1;fontSize=11;endArrow=block;endFill=0;endSize=8;strokeWidth=1;shadow=0;labelBackgroundColor=none;edgeStyle=orthogonalEdgeStyle;entryX=0.5;entryY=0;entryDx=0;entryDy=0;exitX=0.5;exitY=1;exitDx=0;exitDy=0;" parent="WIyWlLk6GJQsqaUBKTNV-1" source="hUnJZFfUFRwl76O63PIy-67" target="hUnJZFfUFRwl76O63PIy-71" edge="1">
          <mxGeometry x="0.122" y="18" relative="1" as="geometry">
            <mxPoint as="offset" />
            <mxPoint x="-622" y="245" as="sourcePoint" />
            <mxPoint x="-622" y="305" as="targetPoint" />
          </mxGeometry>
        </mxCell>
        <mxCell id="hUnJZFfUFRwl76O63PIy-76" value="" style="endArrow=none;dashed=1;html=1;dashPattern=1 3;strokeWidth=2;rounded=0;" parent="WIyWlLk6GJQsqaUBKTNV-1" edge="1">
          <mxGeometry width="50" height="50" relative="1" as="geometry">
            <mxPoint x="-480" y="520" as="sourcePoint" />
            <mxPoint x="-480" y="120" as="targetPoint" />
          </mxGeometry>
        </mxCell>
        <mxCell id="hUnJZFfUFRwl76O63PIy-77" value="" style="endArrow=none;dashed=1;html=1;dashPattern=1 3;strokeWidth=2;rounded=0;" parent="WIyWlLk6GJQsqaUBKTNV-1" edge="1">
          <mxGeometry width="50" height="50" relative="1" as="geometry">
            <mxPoint x="-221" y="520" as="sourcePoint" />
            <mxPoint x="-222" y="115" as="targetPoint" />
          </mxGeometry>
        </mxCell>
        <mxCell id="hUnJZFfUFRwl76O63PIy-78" value="Twitch Bot GPT Prompt, Thread, Response Flow" style="text;strokeColor=none;fillColor=none;html=1;fontSize=24;fontStyle=1;verticalAlign=middle;align=center;" parent="WIyWlLk6GJQsqaUBKTNV-1" vertex="1">
          <mxGeometry x="-709" y="20" width="610" height="40" as="geometry" />
        </mxCell>
        <mxCell id="qEWTsxGy3ptTi1xhj1dg-0" value="" style="edgeStyle=orthogonalEdgeStyle;rounded=0;html=1;jettySize=auto;orthogonalLoop=1;fontSize=11;endArrow=block;endFill=0;endSize=8;strokeWidth=1;shadow=0;labelBackgroundColor=none;exitX=0.5;exitY=1;exitDx=0;exitDy=0;entryX=0.5;entryY=0;entryDx=0;entryDy=0;" parent="WIyWlLk6GJQsqaUBKTNV-1" source="hUnJZFfUFRwl76O63PIy-55" target="hUnJZFfUFRwl76O63PIy-56" edge="1">
          <mxGeometry x="-0.8571" y="17" relative="1" as="geometry">
            <mxPoint as="offset" />
            <mxPoint x="-256" y="629" as="sourcePoint" />
            <mxPoint x="-192" y="838" as="targetPoint" />
            <Array as="points">
              <mxPoint x="-112" y="833" />
              <mxPoint x="-112" y="833" />
            </Array>
          </mxGeometry>
        </mxCell>
        <mxCell id="qEWTsxGy3ptTi1xhj1dg-1" value="chatforme output &lt;br&gt;text" style="shape=parallelogram;html=1;strokeWidth=2;perimeter=parallelogramPerimeter;whiteSpace=wrap;rounded=1;arcSize=12;size=0.23;fillColor=#d5e8d4;strokeColor=#82b366;" parent="WIyWlLk6GJQsqaUBKTNV-1" vertex="1">
          <mxGeometry x="-174.75" y="961" width="124.5" height="46" as="geometry" />
        </mxCell>
        <mxCell id="qEWTsxGy3ptTi1xhj1dg-2" value="" style="edgeStyle=orthogonalEdgeStyle;rounded=0;html=1;jettySize=auto;orthogonalLoop=1;fontSize=11;endArrow=block;endFill=0;endSize=8;strokeWidth=1;shadow=0;labelBackgroundColor=none;entryX=0.75;entryY=0;entryDx=0;entryDy=0;" parent="WIyWlLk6GJQsqaUBKTNV-1" target="qEWTsxGy3ptTi1xhj1dg-1" edge="1">
          <mxGeometry x="-0.8571" y="17" relative="1" as="geometry">
            <mxPoint as="offset" />
            <mxPoint x="-81" y="930" as="sourcePoint" />
            <mxPoint x="-102" y="859" as="targetPoint" />
            <Array as="points" />
          </mxGeometry>
        </mxCell>
        <mxCell id="l_JRxYYCKqVn-Wqy2Nvk-0" value="&lt;font style=&quot;font-size: 8px;&quot;&gt;repeat for each &lt;br&gt;new message in chain&lt;/font&gt;" style="rounded=0;html=1;jettySize=auto;orthogonalLoop=1;fontSize=11;endArrow=block;endFill=0;endSize=8;strokeWidth=1;shadow=0;labelBackgroundColor=none;edgeStyle=orthogonalEdgeStyle;entryX=1;entryY=0.5;entryDx=0;entryDy=0;exitX=1;exitY=0.5;exitDx=0;exitDy=0;fillColor=#ffe6cc;strokeColor=#D79B00;" edge="1" parent="WIyWlLk6GJQsqaUBKTNV-1" source="hUnJZFfUFRwl76O63PIy-21" target="hUnJZFfUFRwl76O63PIy-16">
          <mxGeometry x="0.0447" y="-10" relative="1" as="geometry">
            <mxPoint as="offset" />
            <mxPoint x="-560" y="464" as="sourcePoint" />
            <mxPoint x="-550" y="325" as="targetPoint" />
            <Array as="points">
              <mxPoint x="-500" y="708" />
              <mxPoint x="-500" y="640" />
              <mxPoint x="-547" y="640" />
            </Array>
          </mxGeometry>
        </mxCell>
        <mxCell id="l_JRxYYCKqVn-Wqy2Nvk-1" value="" style="rounded=0;html=1;jettySize=auto;orthogonalLoop=1;fontSize=11;endArrow=block;endFill=0;endSize=8;strokeWidth=1;shadow=0;labelBackgroundColor=none;edgeStyle=orthogonalEdgeStyle;exitX=0.5;exitY=1;exitDx=0;exitDy=0;fillColor=#ffe6cc;strokeColor=#D79B00;entryX=0;entryY=0.5;entryDx=0;entryDy=0;" edge="1" parent="WIyWlLk6GJQsqaUBKTNV-1" source="qEWTsxGy3ptTi1xhj1dg-1" target="hUnJZFfUFRwl76O63PIy-53">
          <mxGeometry x="0.0447" relative="1" as="geometry">
            <mxPoint as="offset" />
            <mxPoint x="-545" y="718" as="sourcePoint" />
            <mxPoint x="-467" y="1007" as="targetPoint" />
            <Array as="points">
              <mxPoint x="-113" y="1070" />
              <mxPoint x="-467" y="1070" />
            </Array>
          </mxGeometry>
        </mxCell>
        <mxCell id="l_JRxYYCKqVn-Wqy2Nvk-2" value="&lt;font style=&quot;font-size: 9px;&quot;&gt;ouat_counter &amp;lt;=&lt;br&gt;max_counter&lt;/font&gt;" style="rhombus;whiteSpace=wrap;html=1;shadow=0;fontFamily=Helvetica;fontSize=12;align=center;strokeWidth=1;spacing=6;spacingTop=-4;" vertex="1" parent="WIyWlLk6GJQsqaUBKTNV-1">
          <mxGeometry x="-330" y="1019" width="96.75" height="81" as="geometry" />
        </mxCell>
        <mxCell id="l_JRxYYCKqVn-Wqy2Nvk-4" value="" style="rounded=0;html=1;jettySize=auto;orthogonalLoop=1;fontSize=11;endArrow=block;endFill=0;endSize=8;strokeWidth=1;shadow=0;labelBackgroundColor=none;edgeStyle=orthogonalEdgeStyle;entryX=-0.065;entryY=0.68;entryDx=0;entryDy=0;exitX=0.48;exitY=1.002;exitDx=0;exitDy=0;fillColor=#ffe6cc;strokeColor=#D79B00;entryPerimeter=0;exitPerimeter=0;" edge="1" parent="WIyWlLk6GJQsqaUBKTNV-1">
          <mxGeometry x="0.0447" relative="1" as="geometry">
            <mxPoint as="offset" />
            <mxPoint x="-431.47511999999983" y="870.4449999999997" as="sourcePoint" />
            <mxPoint x="-394.2500000000002" y="870.4000000000001" as="targetPoint" />
            <Array as="points" />
          </mxGeometry>
        </mxCell>
        <mxCell id="l_JRxYYCKqVn-Wqy2Nvk-5" value="" style="rounded=0;html=1;jettySize=auto;orthogonalLoop=1;fontSize=11;endArrow=block;endFill=0;endSize=8;strokeWidth=1;shadow=0;labelBackgroundColor=none;edgeStyle=orthogonalEdgeStyle;entryX=-0.003;entryY=0.671;entryDx=0;entryDy=0;fillColor=#ffe6cc;strokeColor=#D79B00;entryPerimeter=0;" edge="1" parent="WIyWlLk6GJQsqaUBKTNV-1">
          <mxGeometry x="0.0447" relative="1" as="geometry">
            <mxPoint as="offset" />
            <mxPoint x="-240" y="871" as="sourcePoint" />
            <mxPoint x="-202.53999999999996" y="871.2" as="targetPoint" />
            <Array as="points" />
          </mxGeometry>
        </mxCell>
        <mxCell id="l_JRxYYCKqVn-Wqy2Nvk-6" value="" style="rounded=0;html=1;jettySize=auto;orthogonalLoop=1;fontSize=11;endArrow=block;endFill=0;endSize=8;strokeWidth=1;shadow=0;labelBackgroundColor=none;edgeStyle=orthogonalEdgeStyle;entryX=0.5;entryY=0;entryDx=0;entryDy=0;fillColor=#ffe6cc;strokeColor=#D79B00;exitX=0.5;exitY=1;exitDx=0;exitDy=0;" edge="1" parent="WIyWlLk6GJQsqaUBKTNV-1" source="hUnJZFfUFRwl76O63PIy-54" target="qEWTsxGy3ptTi1xhj1dg-1">
          <mxGeometry x="0.0447" relative="1" as="geometry">
            <mxPoint as="offset" />
            <mxPoint x="-230" y="872" as="sourcePoint" />
            <mxPoint x="-193" y="872" as="targetPoint" />
            <Array as="points" />
          </mxGeometry>
        </mxCell>
        <mxCell id="l_JRxYYCKqVn-Wqy2Nvk-7" value="" style="edgeStyle=orthogonalEdgeStyle;rounded=0;html=1;jettySize=auto;orthogonalLoop=1;fontSize=11;endArrow=block;endFill=0;endSize=8;strokeWidth=1;shadow=0;labelBackgroundColor=none;exitX=0.75;exitY=1;exitDx=0;exitDy=0;" edge="1" parent="WIyWlLk6GJQsqaUBKTNV-1" source="qEWTsxGy3ptTi1xhj1dg-1" target="l_JRxYYCKqVn-Wqy2Nvk-2">
          <mxGeometry x="-0.8571" y="17" relative="1" as="geometry">
            <mxPoint as="offset" />
            <mxPoint x="-71" y="940" as="sourcePoint" />
            <mxPoint x="-230" y="1100" as="targetPoint" />
            <Array as="points">
              <mxPoint x="-81" y="1080" />
            </Array>
          </mxGeometry>
        </mxCell>
        <mxCell id="l_JRxYYCKqVn-Wqy2Nvk-8" value="yes" style="edgeStyle=orthogonalEdgeStyle;rounded=0;html=1;jettySize=auto;orthogonalLoop=1;fontSize=11;endArrow=block;endFill=0;endSize=8;strokeWidth=1;shadow=0;labelBackgroundColor=none;exitX=1;exitY=0.5;exitDx=0;exitDy=0;entryX=0.586;entryY=0.016;entryDx=0;entryDy=0;entryPerimeter=0;" edge="1" parent="WIyWlLk6GJQsqaUBKTNV-1" source="hUnJZFfUFRwl76O63PIy-30" target="hUnJZFfUFRwl76O63PIy-53">
          <mxGeometry x="-0.8571" y="17" relative="1" as="geometry">
            <mxPoint as="offset" />
            <mxPoint x="-590" y="850" as="sourcePoint" />
            <mxPoint x="-540" y="840" as="targetPoint" />
            <Array as="points" />
          </mxGeometry>
        </mxCell>
        <mxCell id="l_JRxYYCKqVn-Wqy2Nvk-9" value="" style="edgeStyle=orthogonalEdgeStyle;rounded=0;html=1;jettySize=auto;orthogonalLoop=1;fontSize=11;endArrow=block;endFill=0;endSize=8;strokeWidth=1;shadow=0;labelBackgroundColor=none;entryX=0.018;entryY=0.615;entryDx=0;entryDy=0;entryPerimeter=0;exitX=0.592;exitY=0.992;exitDx=0;exitDy=0;exitPerimeter=0;" edge="1" parent="WIyWlLk6GJQsqaUBKTNV-1" source="hUnJZFfUFRwl76O63PIy-53" target="hUnJZFfUFRwl76O63PIy-52">
          <mxGeometry x="0.0702" y="35" relative="1" as="geometry">
            <mxPoint as="offset" />
            <mxPoint x="-420" y="840" as="sourcePoint" />
            <mxPoint x="-490" y="850" as="targetPoint" />
            <Array as="points" />
          </mxGeometry>
        </mxCell>
        <mxCell id="l_JRxYYCKqVn-Wqy2Nvk-10" value="end story" style="rhombus;whiteSpace=wrap;html=1;shadow=0;fontFamily=Helvetica;fontSize=12;align=center;strokeWidth=1;spacing=6;spacingTop=-4;fillColor=#7A7A7A;" vertex="1" parent="WIyWlLk6GJQsqaUBKTNV-1">
          <mxGeometry x="-317.43" y="1118" width="71.62" height="49" as="geometry" />
        </mxCell>
        <mxCell id="l_JRxYYCKqVn-Wqy2Nvk-11" value="" style="edgeStyle=orthogonalEdgeStyle;rounded=0;html=1;jettySize=auto;orthogonalLoop=1;fontSize=11;endArrow=block;endFill=0;endSize=8;strokeWidth=1;shadow=0;labelBackgroundColor=none;exitX=0.5;exitY=1;exitDx=0;exitDy=0;entryX=0.5;entryY=0;entryDx=0;entryDy=0;" edge="1" parent="WIyWlLk6GJQsqaUBKTNV-1" source="l_JRxYYCKqVn-Wqy2Nvk-2" target="l_JRxYYCKqVn-Wqy2Nvk-10">
          <mxGeometry x="-0.8571" y="17" relative="1" as="geometry">
            <mxPoint as="offset" />
            <mxPoint x="-71" y="1017" as="sourcePoint" />
            <mxPoint x="-248" y="1090" as="targetPoint" />
            <Array as="points">
              <mxPoint x="-282" y="1100" />
            </Array>
          </mxGeometry>
        </mxCell>
        <mxCell id="l_JRxYYCKqVn-Wqy2Nvk-14" value="" style="rounded=0;whiteSpace=wrap;html=1;opacity=50;strokeColor=none;" vertex="1" parent="WIyWlLk6GJQsqaUBKTNV-1">
          <mxGeometry x="-500" y="85" width="490" height="435" as="geometry" />
        </mxCell>
      </root>
    </mxGraphModel>
  </diagram>
  <diagram id="n8CEMFNE6PN4b7NDmKWg" name="Page-2">
    <mxGraphModel dx="5377" dy="1659" grid="0" gridSize="10" guides="1" tooltips="1" connect="1" arrows="1" fold="1" page="1" pageScale="1" pageWidth="850" pageHeight="1100" math="0" shadow="0">
      <root>
        <mxCell id="0" />
        <mxCell id="1" parent="0" />
        <mxCell id="_X5fJ6YIa4j3JgWCsVUU-1" value="" style="rounded=1;whiteSpace=wrap;html=1;fontSize=16;" vertex="1" parent="1">
          <mxGeometry x="-2520" y="18" width="930" height="540" as="geometry" />
        </mxCell>
        <mxCell id="_X5fJ6YIa4j3JgWCsVUU-2" value="Artricle Sumarizer Assistrant" style="rhombus;whiteSpace=wrap;html=1;shadow=0;fontFamily=Helvetica;fontSize=12;align=center;strokeWidth=1;spacing=6;spacingTop=-4;" vertex="1" parent="1">
          <mxGeometry x="-2339.37" y="48" width="100" height="80" as="geometry" />
        </mxCell>
        <mxCell id="_X5fJ6YIa4j3JgWCsVUU-3" value="create assistant and thread" style="rounded=1;whiteSpace=wrap;html=1;fontSize=12;glass=0;strokeWidth=1;shadow=0;" vertex="1" parent="1">
          <mxGeometry x="-2349.37" y="163" width="120" height="40" as="geometry" />
        </mxCell>
        <mxCell id="_X5fJ6YIa4j3JgWCsVUU-4" value="Article Summarizer" style="text;strokeColor=#6c8ebf;fillColor=#dae8fc;html=1;fontSize=24;fontStyle=1;verticalAlign=middle;align=center;rotation=-90;" vertex="1" parent="1">
          <mxGeometry x="-2570" y="198" width="240" height="55" as="geometry" />
        </mxCell>
        <mxCell id="_X5fJ6YIa4j3JgWCsVUU-5" value="" style="rounded=1;whiteSpace=wrap;html=1;fontSize=16;" vertex="1" parent="1">
          <mxGeometry x="-2520" y="618" width="920" height="835" as="geometry" />
        </mxCell>
        <mxCell id="_X5fJ6YIa4j3JgWCsVUU-6" value="Storyteller Assistant" style="rhombus;whiteSpace=wrap;html=1;shadow=0;fontFamily=Helvetica;fontSize=12;align=center;strokeWidth=1;spacing=6;spacingTop=-4;" vertex="1" parent="1">
          <mxGeometry x="-2339.37" y="648" width="100" height="80" as="geometry" />
        </mxCell>
        <mxCell id="_X5fJ6YIa4j3JgWCsVUU-7" value="create assistant and thread" style="rounded=1;whiteSpace=wrap;html=1;fontSize=12;glass=0;strokeWidth=1;shadow=0;" vertex="1" parent="1">
          <mxGeometry x="-2349.37" y="763" width="120" height="40" as="geometry" />
        </mxCell>
        <mxCell id="_X5fJ6YIa4j3JgWCsVUU-8" style="edgeStyle=none;curved=1;rounded=0;orthogonalLoop=1;jettySize=auto;html=1;exitX=0.5;exitY=1;exitDx=0;exitDy=0;entryX=0.5;entryY=0;entryDx=0;entryDy=0;fontSize=12;startSize=8;endSize=8;" edge="1" parent="1" source="_X5fJ6YIa4j3JgWCsVUU-9" target="_X5fJ6YIa4j3JgWCsVUU-11">
          <mxGeometry relative="1" as="geometry" />
        </mxCell>
        <mxCell id="_X5fJ6YIa4j3JgWCsVUU-9" value="add article to thread" style="rounded=1;whiteSpace=wrap;html=1;fontSize=12;glass=0;strokeWidth=1;shadow=0;" vertex="1" parent="1">
          <mxGeometry x="-2349.37" y="831" width="120" height="40" as="geometry" />
        </mxCell>
        <mxCell id="_X5fJ6YIa4j3JgWCsVUU-10" value="Storyteller" style="text;strokeColor=#6c8ebf;fillColor=#dae8fc;html=1;fontSize=24;fontStyle=1;verticalAlign=middle;align=center;rotation=-90;" vertex="1" parent="1">
          <mxGeometry x="-2540" y="718.5" width="180" height="55" as="geometry" />
        </mxCell>
        <mxCell id="_X5fJ6YIa4j3JgWCsVUU-11" value="ouat_counter&lt;br&gt;is&lt;br&gt;&#39;startstory&#39;" style="rhombus;whiteSpace=wrap;html=1;shadow=0;fontFamily=Helvetica;fontSize=12;align=center;strokeWidth=1;spacing=6;spacingTop=-4;" vertex="1" parent="1">
          <mxGeometry x="-2460" y="973" width="100" height="80" as="geometry" />
        </mxCell>
        <mxCell id="_X5fJ6YIa4j3JgWCsVUU-12" value="No" style="edgeStyle=orthogonalEdgeStyle;rounded=0;orthogonalLoop=1;jettySize=auto;html=1;" edge="1" parent="1" source="_X5fJ6YIa4j3JgWCsVUU-13" target="_X5fJ6YIa4j3JgWCsVUU-14">
          <mxGeometry x="-0.0475" y="-20" relative="1" as="geometry">
            <mxPoint as="offset" />
          </mxGeometry>
        </mxCell>
        <mxCell id="_X5fJ6YIa4j3JgWCsVUU-13" value="ouat_counter&lt;br&gt;is&lt;br&gt;&#39;progress story&#39;" style="rhombus;whiteSpace=wrap;html=1;shadow=0;fontFamily=Helvetica;fontSize=12;align=center;strokeWidth=1;spacing=6;spacingTop=-4;" vertex="1" parent="1">
          <mxGeometry x="-2460" y="1095" width="100" height="80" as="geometry" />
        </mxCell>
        <mxCell id="_X5fJ6YIa4j3JgWCsVUU-14" value="ouat_counter&lt;br&gt;is&lt;br&gt;&#39;wrap up story&#39;" style="rhombus;whiteSpace=wrap;html=1;shadow=0;fontFamily=Helvetica;fontSize=12;align=center;strokeWidth=1;spacing=6;spacingTop=-4;" vertex="1" parent="1">
          <mxGeometry x="-2460" y="1213" width="100" height="80" as="geometry" />
        </mxCell>
        <mxCell id="_X5fJ6YIa4j3JgWCsVUU-15" value="ouat_counter&lt;br&gt;is&lt;br&gt;&#39;end story&#39;" style="rhombus;whiteSpace=wrap;html=1;shadow=0;fontFamily=Helvetica;fontSize=12;align=center;strokeWidth=1;spacing=6;spacingTop=-4;" vertex="1" parent="1">
          <mxGeometry x="-2460" y="1330" width="100" height="80" as="geometry" />
        </mxCell>
        <mxCell id="_X5fJ6YIa4j3JgWCsVUU-16" value="No" style="edgeStyle=orthogonalEdgeStyle;rounded=0;html=1;jettySize=auto;orthogonalLoop=1;fontSize=11;endArrow=block;endFill=0;endSize=8;strokeWidth=1;shadow=0;labelBackgroundColor=none;entryX=0.5;entryY=0;entryDx=0;entryDy=0;exitX=0.5;exitY=1;exitDx=0;exitDy=0;" edge="1" parent="1" source="_X5fJ6YIa4j3JgWCsVUU-11" target="_X5fJ6YIa4j3JgWCsVUU-13">
          <mxGeometry x="-0.4118" y="20" relative="1" as="geometry">
            <mxPoint x="1" as="offset" />
            <mxPoint x="-1722.0299999999997" y="1402" as="sourcePoint" />
            <mxPoint x="-1831.5" y="1349" as="targetPoint" />
            <Array as="points" />
          </mxGeometry>
        </mxCell>
        <mxCell id="_X5fJ6YIa4j3JgWCsVUU-17" value="No" style="edgeStyle=orthogonalEdgeStyle;rounded=0;html=1;jettySize=auto;orthogonalLoop=1;fontSize=11;endArrow=block;endFill=0;endSize=8;strokeWidth=1;shadow=0;labelBackgroundColor=none;entryX=0.5;entryY=0;entryDx=0;entryDy=0;exitX=0.5;exitY=1;exitDx=0;exitDy=0;" edge="1" parent="1" source="_X5fJ6YIa4j3JgWCsVUU-14" target="_X5fJ6YIa4j3JgWCsVUU-15">
          <mxGeometry y="21" relative="1" as="geometry">
            <mxPoint x="-1" as="offset" />
            <mxPoint x="-1707" y="1357" as="sourcePoint" />
            <mxPoint x="-1661" y="1357" as="targetPoint" />
            <Array as="points">
              <mxPoint x="-2410" y="1313" />
              <mxPoint x="-2410" y="1313" />
            </Array>
          </mxGeometry>
        </mxCell>
        <mxCell id="_X5fJ6YIa4j3JgWCsVUU-18" value="&lt;font style=&quot;font-size: 11px;&quot;&gt;instructions =&amp;nbsp;&lt;/font&gt;&lt;font style=&quot;&quot;&gt;&lt;font size=&quot;1&quot;&gt;yaml_data&lt;/font&gt;&lt;span style=&quot;font-size: 9px; background-color: rgb(31, 31, 31); color: rgb(204, 204, 204); font-family: Consolas, &amp;quot;Courier New&amp;quot;, monospace; font-weight: normal;&quot;&gt;[&lt;/span&gt;&lt;span style=&quot;font-size: 9px; font-family: Consolas, &amp;quot;Courier New&amp;quot;, monospace; font-weight: normal; color: rgb(206, 145, 120);&quot;&gt;&#39;gpt_assistant_prompts&#39;&lt;/span&gt;&lt;span style=&quot;font-size: 9px; background-color: rgb(31, 31, 31); color: rgb(204, 204, 204); font-family: Consolas, &amp;quot;Courier New&amp;quot;, monospace; font-weight: normal;&quot;&gt;][&lt;/span&gt;&lt;font size=&quot;1&quot; face=&quot;Consolas, Courier New, monospace&quot; color=&quot;#ce9178&quot;&gt;&#39;&lt;span style=&quot;font-weight: 400;&quot;&gt;story_teller&lt;/span&gt;&lt;span style=&quot;font-weight: normal;&quot;&gt;&#39;&lt;/span&gt;&lt;/font&gt;&lt;/font&gt;&lt;span style=&quot;background-color: rgb(31, 31, 31); color: rgb(204, 204, 204); font-family: Consolas, &amp;quot;Courier New&amp;quot;, monospace; font-size: 9px; font-weight: normal;&quot;&gt;]&lt;/span&gt;" style="text;strokeColor=none;fillColor=none;html=1;fontSize=16;fontStyle=1;verticalAlign=top;align=left;" vertex="1" parent="1">
          <mxGeometry x="-2191" y="763" width="100" height="40" as="geometry" />
        </mxCell>
        <mxCell id="_X5fJ6YIa4j3JgWCsVUU-19" value="&lt;font style=&quot;font-size: 11px;&quot;&gt;message_content =&amp;nbsp;&lt;/font&gt;" style="text;strokeColor=none;fillColor=none;html=1;fontSize=16;fontStyle=1;verticalAlign=middle;align=center;" vertex="1" parent="1">
          <mxGeometry x="-2191.25" y="831" width="121" height="40" as="geometry" />
        </mxCell>
        <mxCell id="_X5fJ6YIa4j3JgWCsVUU-20" value="article summary plot" style="shape=parallelogram;html=1;strokeWidth=2;perimeter=parallelogramPerimeter;whiteSpace=wrap;rounded=1;arcSize=12;size=0.23;fillColor=#d5e8d4;strokeColor=#82b366;" vertex="1" parent="1">
          <mxGeometry x="-2070" y="829" width="161.25" height="40" as="geometry" />
        </mxCell>
        <mxCell id="_X5fJ6YIa4j3JgWCsVUU-21" value="" style="group" vertex="1" connectable="0" parent="1">
          <mxGeometry x="-1860" y="1033" width="180" height="279" as="geometry" />
        </mxCell>
        <mxCell id="_X5fJ6YIa4j3JgWCsVUU-22" value="" style="rounded=1;whiteSpace=wrap;html=1;absoluteArcSize=1;arcSize=14;strokeWidth=2;fillColor=#ffe6cc;strokeColor=#d79b00;" vertex="1" parent="_X5fJ6YIa4j3JgWCsVUU-21">
          <mxGeometry width="180" height="200" as="geometry" />
        </mxCell>
        <mxCell id="_X5fJ6YIa4j3JgWCsVUU-23" value="add_message_to_thread" style="rounded=1;whiteSpace=wrap;html=1;fontSize=12;glass=0;strokeWidth=1;shadow=0;" vertex="1" parent="_X5fJ6YIa4j3JgWCsVUU-21">
          <mxGeometry x="17" y="34" width="145" height="40" as="geometry" />
        </mxCell>
        <mxCell id="_X5fJ6YIa4j3JgWCsVUU-24" value="generate_response_text" style="rounded=1;whiteSpace=wrap;html=1;fontSize=12;glass=0;strokeWidth=1;shadow=0;" vertex="1" parent="_X5fJ6YIa4j3JgWCsVUU-21">
          <mxGeometry x="17" y="121" width="145" height="40" as="geometry" />
        </mxCell>
        <mxCell id="_X5fJ6YIa4j3JgWCsVUU-25" value="" style="edgeStyle=orthogonalEdgeStyle;rounded=0;html=1;jettySize=auto;orthogonalLoop=1;fontSize=11;endArrow=block;endFill=0;endSize=8;strokeWidth=1;shadow=0;labelBackgroundColor=none;exitX=0.5;exitY=1;exitDx=0;exitDy=0;entryX=0.5;entryY=0;entryDx=0;entryDy=0;" edge="1" parent="_X5fJ6YIa4j3JgWCsVUU-21" source="_X5fJ6YIa4j3JgWCsVUU-23" target="_X5fJ6YIa4j3JgWCsVUU-24">
          <mxGeometry x="-0.8571" y="17" relative="1" as="geometry">
            <mxPoint as="offset" />
            <mxPoint x="-54" y="-99" as="sourcePoint" />
            <mxPoint x="10" y="110" as="targetPoint" />
            <Array as="points">
              <mxPoint x="90" y="105" />
              <mxPoint x="90" y="105" />
            </Array>
          </mxGeometry>
        </mxCell>
        <mxCell id="_X5fJ6YIa4j3JgWCsVUU-26" value="chatforme output &lt;br&gt;text" style="shape=parallelogram;html=1;strokeWidth=2;perimeter=parallelogramPerimeter;whiteSpace=wrap;rounded=1;arcSize=12;size=0.23;fillColor=#d5e8d4;strokeColor=#82b366;" vertex="1" parent="_X5fJ6YIa4j3JgWCsVUU-21">
          <mxGeometry x="27.25" y="233" width="124.5" height="46" as="geometry" />
        </mxCell>
        <mxCell id="_X5fJ6YIa4j3JgWCsVUU-27" value="" style="edgeStyle=orthogonalEdgeStyle;rounded=0;html=1;jettySize=auto;orthogonalLoop=1;fontSize=11;endArrow=block;endFill=0;endSize=8;strokeWidth=1;shadow=0;labelBackgroundColor=none;exitX=0.5;exitY=1;exitDx=0;exitDy=0;entryX=0.5;entryY=0;entryDx=0;entryDy=0;" edge="1" parent="_X5fJ6YIa4j3JgWCsVUU-21" source="_X5fJ6YIa4j3JgWCsVUU-24" target="_X5fJ6YIa4j3JgWCsVUU-26">
          <mxGeometry x="-0.8571" y="17" relative="1" as="geometry">
            <mxPoint as="offset" />
            <mxPoint x="100" y="84" as="sourcePoint" />
            <mxPoint x="100" y="131" as="targetPoint" />
            <Array as="points" />
          </mxGeometry>
        </mxCell>
        <mxCell id="_X5fJ6YIa4j3JgWCsVUU-28" value="&lt;font style=&quot;font-size: 11px;&quot;&gt;instruction =&amp;nbsp;&lt;/font&gt;&lt;font style=&quot;font-size: 9px;&quot;&gt;yaml_data&lt;span style=&quot;background-color: rgb(31, 31, 31); color: rgb(204, 204, 204); font-family: Consolas, &amp;quot;Courier New&amp;quot;, monospace; font-weight: normal;&quot;&gt;[&lt;/span&gt;&lt;span style=&quot;font-family: Consolas, &amp;quot;Courier New&amp;quot;, monospace; font-weight: normal; color: rgb(206, 145, 120);&quot;&gt;&#39;gpt_assistant_prompts&#39;&lt;/span&gt;&lt;span style=&quot;background-color: rgb(31, 31, 31); color: rgb(204, 204, 204); font-family: Consolas, &amp;quot;Courier New&amp;quot;, monospace; font-weight: normal;&quot;&gt;][&lt;/span&gt;&lt;span style=&quot;font-family: Consolas, &amp;quot;Courier New&amp;quot;, monospace; font-weight: normal; color: rgb(206, 145, 120);&quot;&gt;&#39;article_summarizer&#39;&lt;/span&gt;&lt;/font&gt;&lt;span style=&quot;background-color: rgb(31, 31, 31); color: rgb(204, 204, 204); font-family: Consolas, &amp;quot;Courier New&amp;quot;, monospace; font-size: 9px; font-weight: normal;&quot;&gt;]&lt;/span&gt;" style="text;strokeColor=none;fillColor=none;html=1;fontSize=16;fontStyle=1;verticalAlign=top;align=left;" vertex="1" parent="1">
          <mxGeometry x="-2349.37" y="993" width="100" height="40" as="geometry" />
        </mxCell>
        <mxCell id="_X5fJ6YIa4j3JgWCsVUU-29" value="&lt;font style=&quot;font-size: 11px;&quot;&gt;instruction =&amp;nbsp;&lt;/font&gt;&lt;font style=&quot;font-size: 9px;&quot;&gt;yaml_data&lt;span style=&quot;background-color: rgb(31, 31, 31); color: rgb(204, 204, 204); font-family: Consolas, &amp;quot;Courier New&amp;quot;, monospace; font-weight: normal;&quot;&gt;[&lt;/span&gt;&lt;span style=&quot;font-family: Consolas, &amp;quot;Courier New&amp;quot;, monospace; font-weight: normal; color: rgb(206, 145, 120);&quot;&gt;&#39;gpt_assistant_prompts&#39;&lt;/span&gt;&lt;span style=&quot;background-color: rgb(31, 31, 31); color: rgb(204, 204, 204); font-family: Consolas, &amp;quot;Courier New&amp;quot;, monospace; font-weight: normal;&quot;&gt;][&lt;/span&gt;&lt;span style=&quot;font-family: Consolas, &amp;quot;Courier New&amp;quot;, monospace; font-weight: normal; color: rgb(206, 145, 120);&quot;&gt;&#39;article_summarizer&#39;&lt;/span&gt;&lt;/font&gt;&lt;span style=&quot;background-color: rgb(31, 31, 31); color: rgb(204, 204, 204); font-family: Consolas, &amp;quot;Courier New&amp;quot;, monospace; font-size: 9px; font-weight: normal;&quot;&gt;]&lt;/span&gt;" style="text;strokeColor=none;fillColor=none;html=1;fontSize=16;fontStyle=1;verticalAlign=top;align=left;" vertex="1" parent="1">
          <mxGeometry x="-2349.37" y="1115" width="100" height="40" as="geometry" />
        </mxCell>
        <mxCell id="_X5fJ6YIa4j3JgWCsVUU-30" value="&lt;font style=&quot;font-size: 11px;&quot;&gt;instruction =&amp;nbsp;&lt;/font&gt;&lt;font style=&quot;font-size: 9px;&quot;&gt;yaml_data&lt;span style=&quot;background-color: rgb(31, 31, 31); color: rgb(204, 204, 204); font-family: Consolas, &amp;quot;Courier New&amp;quot;, monospace; font-weight: normal;&quot;&gt;[&lt;/span&gt;&lt;span style=&quot;font-family: Consolas, &amp;quot;Courier New&amp;quot;, monospace; font-weight: normal; color: rgb(206, 145, 120);&quot;&gt;&#39;gpt_assistant_prompts&#39;&lt;/span&gt;&lt;span style=&quot;background-color: rgb(31, 31, 31); color: rgb(204, 204, 204); font-family: Consolas, &amp;quot;Courier New&amp;quot;, monospace; font-weight: normal;&quot;&gt;][&lt;/span&gt;&lt;span style=&quot;font-family: Consolas, &amp;quot;Courier New&amp;quot;, monospace; font-weight: normal; color: rgb(206, 145, 120);&quot;&gt;&#39;article_summarizer&#39;&lt;/span&gt;&lt;/font&gt;&lt;span style=&quot;background-color: rgb(31, 31, 31); color: rgb(204, 204, 204); font-family: Consolas, &amp;quot;Courier New&amp;quot;, monospace; font-size: 9px; font-weight: normal;&quot;&gt;]&lt;/span&gt;" style="text;strokeColor=none;fillColor=none;html=1;fontSize=16;fontStyle=1;verticalAlign=top;align=left;" vertex="1" parent="1">
          <mxGeometry x="-2349.37" y="1233" width="100" height="40" as="geometry" />
        </mxCell>
        <mxCell id="_X5fJ6YIa4j3JgWCsVUU-31" value="&lt;font style=&quot;font-size: 11px;&quot;&gt;instruction =&amp;nbsp;&lt;/font&gt;&lt;font style=&quot;font-size: 9px;&quot;&gt;yaml_data&lt;span style=&quot;background-color: rgb(31, 31, 31); color: rgb(204, 204, 204); font-family: Consolas, &amp;quot;Courier New&amp;quot;, monospace; font-weight: normal;&quot;&gt;[&lt;/span&gt;&lt;span style=&quot;font-family: Consolas, &amp;quot;Courier New&amp;quot;, monospace; font-weight: normal; color: rgb(206, 145, 120);&quot;&gt;&#39;gpt_assistant_prompts&#39;&lt;/span&gt;&lt;span style=&quot;background-color: rgb(31, 31, 31); color: rgb(204, 204, 204); font-family: Consolas, &amp;quot;Courier New&amp;quot;, monospace; font-weight: normal;&quot;&gt;][&lt;/span&gt;&lt;span style=&quot;font-family: Consolas, &amp;quot;Courier New&amp;quot;, monospace; font-weight: normal; color: rgb(206, 145, 120);&quot;&gt;&#39;article_summarizer&#39;&lt;/span&gt;&lt;/font&gt;&lt;span style=&quot;background-color: rgb(31, 31, 31); color: rgb(204, 204, 204); font-family: Consolas, &amp;quot;Courier New&amp;quot;, monospace; font-size: 9px; font-weight: normal;&quot;&gt;]&lt;/span&gt;" style="text;strokeColor=none;fillColor=none;html=1;fontSize=16;fontStyle=1;verticalAlign=top;align=left;" vertex="1" parent="1">
          <mxGeometry x="-2349.37" y="1350" width="100" height="40" as="geometry" />
        </mxCell>
        <mxCell id="_X5fJ6YIa4j3JgWCsVUU-32" style="edgeStyle=none;curved=1;rounded=0;orthogonalLoop=1;jettySize=auto;html=1;entryX=0;entryY=0.5;entryDx=0;entryDy=0;fontSize=12;startSize=8;endSize=8;" edge="1" parent="1" source="_X5fJ6YIa4j3JgWCsVUU-33" target="_X5fJ6YIa4j3JgWCsVUU-22">
          <mxGeometry relative="1" as="geometry" />
        </mxCell>
        <mxCell id="_X5fJ6YIa4j3JgWCsVUU-33" value="" style="strokeWidth=2;html=1;shape=mxgraph.flowchart.annotation_1;align=left;pointerEvents=1;fillColor=#e1d5e7;strokeColor=#9673a6;rotation=-180;" vertex="1" parent="1">
          <mxGeometry x="-2010" y="929" width="50" height="500" as="geometry" />
        </mxCell>
        <mxCell id="_X5fJ6YIa4j3JgWCsVUU-34" value="" style="endArrow=none;dashed=1;html=1;dashPattern=1 3;strokeWidth=2;rounded=0;fontSize=12;startSize=8;endSize=8;curved=1;entryX=0.5;entryY=1;entryDx=0;entryDy=0;exitX=0.25;exitY=0;exitDx=0;exitDy=0;" edge="1" parent="1" source="_X5fJ6YIa4j3JgWCsVUU-20" target="_X5fJ6YIa4j3JgWCsVUU-45">
          <mxGeometry width="50" height="50" relative="1" as="geometry">
            <mxPoint x="-1970" y="548" as="sourcePoint" />
            <mxPoint x="-2249.0625" y="408" as="targetPoint" />
          </mxGeometry>
        </mxCell>
        <mxCell id="_X5fJ6YIa4j3JgWCsVUU-35" value="" style="group" vertex="1" connectable="0" parent="1">
          <mxGeometry x="-2150" y="168" width="282.25" height="169" as="geometry" />
        </mxCell>
        <mxCell id="_X5fJ6YIa4j3JgWCsVUU-36" value="&lt;font style=&quot;font-size: 11px;&quot;&gt;instructions =&amp;nbsp;&lt;/font&gt;&lt;font style=&quot;font-size: 9px;&quot;&gt;yaml_data&lt;span style=&quot;background-color: rgb(31, 31, 31); color: rgb(204, 204, 204); font-family: Consolas, &amp;quot;Courier New&amp;quot;, monospace; font-weight: normal;&quot;&gt;[&lt;/span&gt;&lt;span style=&quot;font-family: Consolas, &amp;quot;Courier New&amp;quot;, monospace; font-weight: normal; color: rgb(206, 145, 120);&quot;&gt;&#39;gpt_assistant_prompts&#39;&lt;/span&gt;&lt;span style=&quot;background-color: rgb(31, 31, 31); color: rgb(204, 204, 204); font-family: Consolas, &amp;quot;Courier New&amp;quot;, monospace; font-weight: normal;&quot;&gt;][&lt;/span&gt;&lt;span style=&quot;font-family: Consolas, &amp;quot;Courier New&amp;quot;, monospace; font-weight: normal; color: rgb(206, 145, 120);&quot;&gt;&#39;article_summarizer&#39;&lt;/span&gt;&lt;/font&gt;&lt;span style=&quot;background-color: rgb(31, 31, 31); color: rgb(204, 204, 204); font-family: Consolas, &amp;quot;Courier New&amp;quot;, monospace; font-size: 9px; font-weight: normal;&quot;&gt;]&lt;/span&gt;" style="text;strokeColor=none;fillColor=none;html=1;fontSize=16;fontStyle=1;verticalAlign=top;align=left;" vertex="1" parent="_X5fJ6YIa4j3JgWCsVUU-35">
          <mxGeometry width="100" height="40" as="geometry" />
        </mxCell>
        <mxCell id="_X5fJ6YIa4j3JgWCsVUU-37" value="&lt;font style=&quot;font-size: 11px;&quot;&gt;instruction =&amp;nbsp;&lt;/font&gt;&lt;font style=&quot;font-size: 9px;&quot;&gt;yaml_data&lt;span style=&quot;background-color: rgb(31, 31, 31); color: rgb(204, 204, 204); font-family: Consolas, &amp;quot;Courier New&amp;quot;, monospace; font-weight: normal;&quot;&gt;[&lt;/span&gt;&lt;span style=&quot;font-family: Consolas, &amp;quot;Courier New&amp;quot;, monospace; font-weight: normal; color: rgb(206, 145, 120);&quot;&gt;&#39;gpt_assistant_prompts&#39;&lt;/span&gt;&lt;span style=&quot;background-color: rgb(31, 31, 31); color: rgb(204, 204, 204); font-family: Consolas, &amp;quot;Courier New&amp;quot;, monospace; font-weight: normal;&quot;&gt;][&lt;/span&gt;&lt;span style=&quot;font-family: Consolas, &amp;quot;Courier New&amp;quot;, monospace; font-weight: normal; color: rgb(206, 145, 120);&quot;&gt;&#39;article_summarizer&#39;&lt;/span&gt;&lt;/font&gt;&lt;span style=&quot;background-color: rgb(31, 31, 31); color: rgb(204, 204, 204); font-family: Consolas, &amp;quot;Courier New&amp;quot;, monospace; font-size: 9px; font-weight: normal;&quot;&gt;]&lt;/span&gt;" style="text;strokeColor=none;fillColor=none;html=1;fontSize=16;fontStyle=1;verticalAlign=top;align=left;" vertex="1" parent="_X5fJ6YIa4j3JgWCsVUU-35">
          <mxGeometry y="94" width="100" height="40" as="geometry" />
        </mxCell>
        <mxCell id="_X5fJ6YIa4j3JgWCsVUU-38" value="article_generator" style="shape=parallelogram;html=1;strokeWidth=2;perimeter=parallelogramPerimeter;whiteSpace=wrap;rounded=1;arcSize=12;size=0.23;fillColor=#d5e8d4;strokeColor=#82b366;" vertex="1" parent="_X5fJ6YIa4j3JgWCsVUU-35">
          <mxGeometry x="121" y="40" width="161.25" height="40" as="geometry" />
        </mxCell>
        <mxCell id="_X5fJ6YIa4j3JgWCsVUU-39" value="&lt;font style=&quot;font-size: 11px;&quot;&gt;message_content =&amp;nbsp;&lt;/font&gt;" style="text;strokeColor=none;fillColor=none;html=1;fontSize=16;fontStyle=1;verticalAlign=middle;align=center;" vertex="1" parent="_X5fJ6YIa4j3JgWCsVUU-35">
          <mxGeometry y="38" width="121" height="40" as="geometry" />
        </mxCell>
        <mxCell id="_X5fJ6YIa4j3JgWCsVUU-40" value="" style="group" vertex="1" connectable="0" parent="1">
          <mxGeometry x="-2370" y="228" width="180" height="279" as="geometry" />
        </mxCell>
        <mxCell id="_X5fJ6YIa4j3JgWCsVUU-41" value="" style="rounded=1;whiteSpace=wrap;html=1;absoluteArcSize=1;arcSize=14;strokeWidth=2;fillColor=#ffe6cc;strokeColor=#d79b00;" vertex="1" parent="_X5fJ6YIa4j3JgWCsVUU-40">
          <mxGeometry width="180" height="200" as="geometry" />
        </mxCell>
        <mxCell id="_X5fJ6YIa4j3JgWCsVUU-42" value="add_message_to_thread" style="rounded=1;whiteSpace=wrap;html=1;fontSize=12;glass=0;strokeWidth=1;shadow=0;" vertex="1" parent="_X5fJ6YIa4j3JgWCsVUU-40">
          <mxGeometry x="17" y="34" width="145" height="40" as="geometry" />
        </mxCell>
        <mxCell id="_X5fJ6YIa4j3JgWCsVUU-43" value="generate_response_text" style="rounded=1;whiteSpace=wrap;html=1;fontSize=12;glass=0;strokeWidth=1;shadow=0;" vertex="1" parent="_X5fJ6YIa4j3JgWCsVUU-40">
          <mxGeometry x="17" y="121" width="145" height="40" as="geometry" />
        </mxCell>
        <mxCell id="_X5fJ6YIa4j3JgWCsVUU-44" value="" style="edgeStyle=orthogonalEdgeStyle;rounded=0;html=1;jettySize=auto;orthogonalLoop=1;fontSize=11;endArrow=block;endFill=0;endSize=8;strokeWidth=1;shadow=0;labelBackgroundColor=none;exitX=0.5;exitY=1;exitDx=0;exitDy=0;entryX=0.5;entryY=0;entryDx=0;entryDy=0;" edge="1" parent="_X5fJ6YIa4j3JgWCsVUU-40" source="_X5fJ6YIa4j3JgWCsVUU-42" target="_X5fJ6YIa4j3JgWCsVUU-43">
          <mxGeometry x="-0.8571" y="17" relative="1" as="geometry">
            <mxPoint as="offset" />
            <mxPoint x="-54" y="-99" as="sourcePoint" />
            <mxPoint x="10" y="110" as="targetPoint" />
            <Array as="points">
              <mxPoint x="90" y="105" />
              <mxPoint x="90" y="105" />
            </Array>
          </mxGeometry>
        </mxCell>
        <mxCell id="_X5fJ6YIa4j3JgWCsVUU-45" value="article_summary_prompt" style="shape=parallelogram;html=1;strokeWidth=2;perimeter=parallelogramPerimeter;whiteSpace=wrap;rounded=1;arcSize=12;size=0.23;fillColor=#d5e8d4;strokeColor=#82b366;" vertex="1" parent="_X5fJ6YIa4j3JgWCsVUU-40">
          <mxGeometry x="27.25" y="233" width="124.5" height="46" as="geometry" />
        </mxCell>
        <mxCell id="_X5fJ6YIa4j3JgWCsVUU-46" value="" style="edgeStyle=orthogonalEdgeStyle;rounded=0;html=1;jettySize=auto;orthogonalLoop=1;fontSize=11;endArrow=block;endFill=0;endSize=8;strokeWidth=1;shadow=0;labelBackgroundColor=none;exitX=0.5;exitY=1;exitDx=0;exitDy=0;entryX=0.5;entryY=0;entryDx=0;entryDy=0;" edge="1" parent="_X5fJ6YIa4j3JgWCsVUU-40" source="_X5fJ6YIa4j3JgWCsVUU-43" target="_X5fJ6YIa4j3JgWCsVUU-45">
          <mxGeometry x="-0.8571" y="17" relative="1" as="geometry">
            <mxPoint as="offset" />
            <mxPoint x="100" y="84" as="sourcePoint" />
            <mxPoint x="100" y="131" as="targetPoint" />
            <Array as="points" />
          </mxGeometry>
        </mxCell>
        <mxCell id="_X5fJ6YIa4j3JgWCsVUU-47" value="" style="endArrow=none;dashed=1;html=1;dashPattern=1 3;strokeWidth=2;rounded=0;fontSize=12;startSize=8;endSize=8;curved=1;entryX=1;entryY=0.5;entryDx=0;entryDy=0;exitX=0;exitY=0.5;exitDx=0;exitDy=0;" edge="1" parent="1" source="_X5fJ6YIa4j3JgWCsVUU-37" target="_X5fJ6YIa4j3JgWCsVUU-43">
          <mxGeometry width="50" height="50" relative="1" as="geometry">
            <mxPoint x="-2020" y="839" as="sourcePoint" />
            <mxPoint x="-2270" y="517" as="targetPoint" />
          </mxGeometry>
        </mxCell>
        <mxCell id="_X5fJ6YIa4j3JgWCsVUU-48" value="" style="endArrow=none;dashed=1;html=1;dashPattern=1 3;strokeWidth=2;rounded=0;fontSize=12;startSize=8;endSize=8;curved=1;entryX=1;entryY=0.5;entryDx=0;entryDy=0;exitX=0;exitY=0.5;exitDx=0;exitDy=0;" edge="1" parent="1" source="_X5fJ6YIa4j3JgWCsVUU-39" target="_X5fJ6YIa4j3JgWCsVUU-42">
          <mxGeometry width="50" height="50" relative="1" as="geometry">
            <mxPoint x="-2140" y="380" as="sourcePoint" />
            <mxPoint x="-2198" y="379" as="targetPoint" />
          </mxGeometry>
        </mxCell>
        <mxCell id="_X5fJ6YIa4j3JgWCsVUU-49" value="" style="endArrow=none;dashed=1;html=1;dashPattern=1 3;strokeWidth=2;rounded=0;fontSize=12;startSize=8;endSize=8;curved=1;entryX=1;entryY=0.5;entryDx=0;entryDy=0;exitX=0;exitY=0.5;exitDx=0;exitDy=0;" edge="1" parent="1" source="_X5fJ6YIa4j3JgWCsVUU-36" target="_X5fJ6YIa4j3JgWCsVUU-3">
          <mxGeometry width="50" height="50" relative="1" as="geometry">
            <mxPoint x="-2140" y="291" as="sourcePoint" />
            <mxPoint x="-2198" y="292" as="targetPoint" />
          </mxGeometry>
        </mxCell>
        <mxCell id="_X5fJ6YIa4j3JgWCsVUU-50" value="output layer" style="rounded=1;whiteSpace=wrap;html=1;fontSize=16;" vertex="1" parent="1">
          <mxGeometry x="-1828.25" y="1568" width="120" height="60" as="geometry" />
        </mxCell>
        <mxCell id="_X5fJ6YIa4j3JgWCsVUU-51" style="edgeStyle=none;curved=1;rounded=0;orthogonalLoop=1;jettySize=auto;html=1;exitX=0.5;exitY=1;exitDx=0;exitDy=0;entryX=0.5;entryY=0;entryDx=0;entryDy=0;fontSize=12;startSize=8;endSize=8;" edge="1" parent="1" source="_X5fJ6YIa4j3JgWCsVUU-26" target="_X5fJ6YIa4j3JgWCsVUU-50">
          <mxGeometry relative="1" as="geometry" />
        </mxCell>
      </root>
    </mxGraphModel>
  </diagram>
</mxfile>
